<svg width="93" height="48" viewBox="0 0 93 48" fill="none" xmlns="http://www.w3.org/2000/svg">
<path d="M13 19.5036C62.9075 19.5036 75.7948 19.5036 76 19.5036" stroke="black" stroke-width="10"/>
<path d="M8.00935 43.0005C7.73324 12.1627 14.3713 4.82031 17.3625 5.00387L76.001 5.00388" stroke="black" stroke-width="10"/>
<path d="M18.3706 41.5036V31.5036H20.9306V41.5036H18.3706ZM19.6506 29.8236C19.2106 29.8236 18.8306 29.6836 18.5106 29.4036C18.1906 29.1236 18.0306 28.7536 18.0306 28.2936C18.0306 27.8336 18.1906 27.4636 18.5106 27.1836C18.8306 26.9036 19.2106 26.7636 19.6506 26.7636C20.0906 26.7636 20.4706 26.9036 20.7906 27.1836C21.1106 27.4636 21.2706 27.8336 21.2706 28.2936C21.2706 28.7536 21.1106 29.1236 20.7906 29.4036C20.4706 29.6836 20.0906 29.8236 19.6506 29.8236ZM23.8784 41.5036V31.5036H26.4384V32.7036C26.8384 32.1769 27.3051 31.7969 27.8384 31.5636C28.3784 31.3236 28.9418 31.2036 29.5284 31.2036C30.4484 31.2036 31.2084 31.3869 31.8084 31.7536C32.4151 32.1202 32.8651 32.5902 33.1584 33.1636C33.4518 33.7369 33.5984 34.3369 33.5984 34.9636V41.5036H31.0384V35.7636C31.0384 35.0836 30.8418 34.5436 30.4484 34.1436C30.0551 33.7436 29.5051 33.5436 28.7984 33.5436C28.3384 33.5436 27.9284 33.6469 27.5684 33.8536C27.2151 34.0536 26.9384 34.3369 26.7384 34.7036C26.5384 35.0702 26.4384 35.4936 26.4384 35.9736V41.5036H23.8784ZM41.0966 41.8036C40.0366 41.8036 39.0932 41.5736 38.2666 41.1136C37.4466 40.6469 36.7999 40.0169 36.3266 39.2236C35.8532 38.4236 35.6166 37.5169 35.6166 36.5036C35.6166 35.7369 35.7566 35.0336 36.0366 34.3936C36.3166 33.7469 36.7099 33.1869 37.2166 32.7136C37.7232 32.2336 38.3166 31.8636 38.9966 31.6036C39.6832 31.3369 40.4299 31.2036 41.2366 31.2036C41.9366 31.2036 42.5866 31.2969 43.1866 31.4836C43.7866 31.6702 44.3366 31.9569 44.8366 32.3436L43.6466 34.2736C43.3332 33.9936 42.9766 33.7869 42.5766 33.6536C42.1832 33.5136 41.7699 33.4436 41.3366 33.4436C40.6832 33.4436 40.1199 33.5636 39.6466 33.8036C39.1799 34.0436 38.8199 34.3902 38.5666 34.8436C38.3132 35.2969 38.1866 35.8469 38.1866 36.4936C38.1866 37.4536 38.4666 38.2069 39.0266 38.7536C39.5932 39.2936 40.3632 39.5636 41.3366 39.5636C41.8232 39.5636 42.2832 39.4736 42.7166 39.2936C43.1499 39.1136 43.5266 38.8669 43.8466 38.5536L44.9866 40.4936C44.4399 40.9002 43.8299 41.2202 43.1566 41.4536C42.4832 41.6869 41.7966 41.8036 41.0966 41.8036ZM46.9058 41.5036V27.1036H49.4658V41.5036H46.9058ZM55.1936 41.8036C54.5136 41.8036 53.9103 41.6736 53.3836 41.4136C52.8569 41.1536 52.4436 40.7869 52.1436 40.3136C51.8436 39.8336 51.6936 39.2669 51.6936 38.6136C51.6936 38.0536 51.8336 37.5536 52.1136 37.1136C52.3936 36.6736 52.8236 36.3102 53.4036 36.0236C53.9836 35.7302 54.7236 35.5336 55.6236 35.4336C56.5303 35.3336 57.6036 35.3469 58.8436 35.4736L58.8836 37.1636C58.0703 37.0369 57.3603 36.9802 56.7536 36.9936C56.1469 37.0069 55.6436 37.0769 55.2436 37.2036C54.8503 37.3302 54.5536 37.5036 54.3536 37.7236C54.1603 37.9436 54.0636 38.2002 54.0636 38.4936C54.0636 38.9336 54.2236 39.2736 54.5436 39.5136C54.8636 39.7469 55.3003 39.8636 55.8536 39.8636C56.3269 39.8636 56.7503 39.7769 57.1236 39.6036C57.5036 39.4302 57.8036 39.1869 58.0236 38.8736C58.2436 38.5536 58.3536 38.1769 58.3536 37.7436V35.2136C58.3536 34.7936 58.2636 34.4302 58.0836 34.1236C57.9103 33.8102 57.6436 33.5702 57.2836 33.4036C56.9236 33.2302 56.4603 33.1436 55.8936 33.1436C55.3736 33.1436 54.8569 33.2236 54.3436 33.3836C53.8369 33.5369 53.3603 33.7769 52.9136 34.1036L52.2236 32.2736C52.8569 31.8536 53.5236 31.5536 54.2236 31.3736C54.9236 31.1936 55.6003 31.1036 56.2536 31.1036C57.1869 31.1036 57.9936 31.2502 58.6736 31.5436C59.3603 31.8369 59.8869 32.2869 60.2536 32.8936C60.6269 33.4936 60.8136 34.2569 60.8136 35.1836V41.5036H58.5536V40.3636C58.2203 40.8236 57.7603 41.1802 57.1736 41.4336C56.5869 41.6802 55.9269 41.8036 55.1936 41.8036ZM63.6441 41.5036V31.5036H66.2041V41.5036H63.6441ZM64.9241 29.8236C64.4841 29.8236 64.1041 29.6836 63.7841 29.4036C63.4641 29.1236 63.3041 28.7536 63.3041 28.2936C63.3041 27.8336 63.4641 27.4636 63.7841 27.1836C64.1041 26.9036 64.4841 26.7636 64.9241 26.7636C65.3641 26.7636 65.7441 26.9036 66.0641 27.1836C66.3841 27.4636 66.5441 27.8336 66.5441 28.2936C66.5441 28.7536 66.3841 29.1236 66.0641 29.4036C65.7441 29.6836 65.3641 29.8236 64.9241 29.8236ZM69.1519 41.5036V31.5036H71.7119V32.8136C72.0585 32.2269 72.4919 31.8102 73.0119 31.5636C73.5385 31.3169 74.1052 31.1936 74.7119 31.1936C74.9252 31.1936 75.1219 31.2036 75.3019 31.2236C75.4819 31.2436 75.6552 31.2736 75.8219 31.3136L75.5019 33.9536C75.2952 33.8802 75.0785 33.8269 74.8519 33.7936C74.6319 33.7536 74.4119 33.7336 74.1919 33.7336C73.4719 33.7336 72.8785 33.9502 72.4119 34.3836C71.9452 34.8102 71.7119 35.4102 71.7119 36.1836V41.5036H69.1519Z" fill="black"/>
</svg>
